<mxfile host="app.diagrams.net" modified="2020-11-20T11:54:09.145Z" agent="5.0 (X11; Linux x86_64) AppleWebKit/537.36 (KHTML, like Gecko) Chrome/87.0.4280.66 Safari/537.36" etag="oTGp2IdrT9j4ptPf5esk" version="13.10.0" type="github">
  <diagram id="LoJtkDgJV5zuZ0UButRT" name="Page-2">
    <mxGraphModel dx="2249" dy="1970" grid="1" gridSize="10" guides="1" tooltips="1" connect="1" arrows="1" fold="1" page="1" pageScale="1" pageWidth="827" pageHeight="1169" math="0" shadow="0">
      <root>
        <mxCell id="3e7g7bbxCxHq83Mi6UtR-0" />
        <mxCell id="3e7g7bbxCxHq83Mi6UtR-1" parent="3e7g7bbxCxHq83Mi6UtR-0" />
        <mxCell id="0tiqqK7Gh2DmQwWfJ2oh-0" style="edgeStyle=orthogonalEdgeStyle;rounded=0;orthogonalLoop=1;jettySize=auto;html=1;" edge="1" parent="3e7g7bbxCxHq83Mi6UtR-1" source="0tiqqK7Gh2DmQwWfJ2oh-1">
          <mxGeometry relative="1" as="geometry">
            <mxPoint x="855" y="-310" as="targetPoint" />
          </mxGeometry>
        </mxCell>
        <mxCell id="0tiqqK7Gh2DmQwWfJ2oh-1" value="" style="whiteSpace=wrap;html=1;aspect=fixed;" vertex="1" parent="3e7g7bbxCxHq83Mi6UtR-1">
          <mxGeometry x="-40" y="-430" width="1760" height="1760" as="geometry" />
        </mxCell>
        <mxCell id="0tiqqK7Gh2DmQwWfJ2oh-2" value="" style="outlineConnect=0;dashed=0;verticalLabelPosition=bottom;verticalAlign=top;align=center;html=1;shape=mxgraph.aws3.bucket_with_objects;fillColor=#E05243;gradientColor=none;" vertex="1" parent="3e7g7bbxCxHq83Mi6UtR-1">
          <mxGeometry x="130" y="10" width="80" height="100" as="geometry" />
        </mxCell>
        <mxCell id="0tiqqK7Gh2DmQwWfJ2oh-3" value="" style="outlineConnect=0;dashed=0;verticalLabelPosition=bottom;verticalAlign=top;align=center;html=1;shape=mxgraph.aws3.bucket_with_objects;fillColor=#E05243;gradientColor=none;" vertex="1" parent="3e7g7bbxCxHq83Mi6UtR-1">
          <mxGeometry x="280" y="20" width="90" height="90" as="geometry" />
        </mxCell>
        <mxCell id="0tiqqK7Gh2DmQwWfJ2oh-4" value="&lt;font style=&quot;font-size: 16px&quot;&gt;&lt;b&gt;Bet123 Site&lt;br&gt;React Frontend&lt;/b&gt;&lt;/font&gt;" style="whiteSpace=wrap;html=1;aspect=fixed;" vertex="1" parent="3e7g7bbxCxHq83Mi6UtR-1">
          <mxGeometry x="90" y="220" width="290" height="290" as="geometry" />
        </mxCell>
        <mxCell id="0tiqqK7Gh2DmQwWfJ2oh-5" value="" style="shape=image;html=1;verticalAlign=top;verticalLabelPosition=bottom;labelBackgroundColor=#ffffff;imageAspect=0;aspect=fixed;image=https://cdn4.iconfinder.com/data/icons/logos-3/600/React.js_logo-128.png" vertex="1" parent="3e7g7bbxCxHq83Mi6UtR-1">
          <mxGeometry x="160" y="220" width="128" height="128" as="geometry" />
        </mxCell>
        <mxCell id="0tiqqK7Gh2DmQwWfJ2oh-6" value="" style="outlineConnect=0;fontColor=#232F3E;gradientColor=#F54749;gradientDirection=north;fillColor=#C7131F;strokeColor=#ffffff;dashed=0;verticalLabelPosition=bottom;verticalAlign=top;align=center;html=1;fontSize=12;fontStyle=0;aspect=fixed;shape=mxgraph.aws4.resourceIcon;resIcon=mxgraph.aws4.amplify;" vertex="1" parent="3e7g7bbxCxHq83Mi6UtR-1">
          <mxGeometry x="360" y="296" width="78" height="78" as="geometry" />
        </mxCell>
        <mxCell id="0tiqqK7Gh2DmQwWfJ2oh-7" value="" style="outlineConnect=0;fontColor=#232F3E;gradientColor=#F54749;gradientDirection=north;fillColor=#C7131F;strokeColor=#ffffff;dashed=0;verticalLabelPosition=bottom;verticalAlign=top;align=center;html=1;fontSize=12;fontStyle=0;aspect=fixed;shape=mxgraph.aws4.resourceIcon;resIcon=mxgraph.aws4.appsync;" vertex="1" parent="3e7g7bbxCxHq83Mi6UtR-1">
          <mxGeometry x="540" y="300" width="78" height="78" as="geometry" />
        </mxCell>
        <mxCell id="0tiqqK7Gh2DmQwWfJ2oh-8" value="" style="outlineConnect=0;fontColor=#232F3E;gradientColor=#F54749;gradientDirection=north;fillColor=#C7131F;strokeColor=#ffffff;dashed=0;verticalLabelPosition=bottom;verticalAlign=top;align=center;html=1;fontSize=12;fontStyle=0;aspect=fixed;shape=mxgraph.aws4.resourceIcon;resIcon=mxgraph.aws4.cognito;" vertex="1" parent="3e7g7bbxCxHq83Mi6UtR-1">
          <mxGeometry x="552" y="-50" width="78" height="78" as="geometry" />
        </mxCell>
        <mxCell id="0tiqqK7Gh2DmQwWfJ2oh-9" value="&lt;font color=&quot;#0066cc&quot;&gt;&lt;strike&gt;&lt;b style=&quot;font-size: 36px&quot;&gt;Stripe&lt;/b&gt;&lt;br&gt;&lt;/strike&gt;&lt;font style=&quot;font-size: 24px&quot;&gt;Mpesa&lt;br&gt;Airtel M&lt;/font&gt;&lt;br&gt;&lt;/font&gt;" style="rounded=0;whiteSpace=wrap;html=1;" vertex="1" parent="3e7g7bbxCxHq83Mi6UtR-1">
          <mxGeometry x="780" y="-60" width="210" height="110" as="geometry" />
        </mxCell>
        <mxCell id="0tiqqK7Gh2DmQwWfJ2oh-10" value="" style="rounded=0;whiteSpace=wrap;html=1;" vertex="1" parent="3e7g7bbxCxHq83Mi6UtR-1">
          <mxGeometry x="790" y="180" width="360" height="190" as="geometry" />
        </mxCell>
        <mxCell id="0tiqqK7Gh2DmQwWfJ2oh-11" value="" style="outlineConnect=0;fontColor=#232F3E;gradientColor=none;fillColor=#D05C17;strokeColor=none;dashed=0;verticalLabelPosition=bottom;verticalAlign=top;align=center;html=1;fontSize=12;fontStyle=0;aspect=fixed;pointerEvents=1;shape=mxgraph.aws4.lambda_function;" vertex="1" parent="3e7g7bbxCxHq83Mi6UtR-1">
          <mxGeometry x="830" y="200" width="78" height="78" as="geometry" />
        </mxCell>
        <mxCell id="0tiqqK7Gh2DmQwWfJ2oh-12" value="" style="outlineConnect=0;fontColor=#232F3E;gradientColor=none;fillColor=#D05C17;strokeColor=none;dashed=0;verticalLabelPosition=bottom;verticalAlign=top;align=center;html=1;fontSize=12;fontStyle=0;aspect=fixed;pointerEvents=1;shape=mxgraph.aws4.lambda_function;" vertex="1" parent="3e7g7bbxCxHq83Mi6UtR-1">
          <mxGeometry x="1010" y="200" width="78" height="78" as="geometry" />
        </mxCell>
        <mxCell id="0tiqqK7Gh2DmQwWfJ2oh-13" value="&lt;font style=&quot;font-size: 17px&quot;&gt;&lt;b&gt;VTL&lt;/b&gt;&lt;/font&gt;" style="rounded=0;whiteSpace=wrap;html=1;direction=south;" vertex="1" parent="3e7g7bbxCxHq83Mi6UtR-1">
          <mxGeometry x="790" y="435" width="110" height="170" as="geometry" />
        </mxCell>
        <mxCell id="0tiqqK7Gh2DmQwWfJ2oh-14" value="" style="outlineConnect=0;fontColor=#232F3E;gradientColor=#4D72F3;gradientDirection=north;fillColor=#3334B9;strokeColor=#ffffff;dashed=0;verticalLabelPosition=bottom;verticalAlign=top;align=center;html=1;fontSize=12;fontStyle=0;aspect=fixed;shape=mxgraph.aws4.resourceIcon;resIcon=mxgraph.aws4.dynamodb;" vertex="1" parent="3e7g7bbxCxHq83Mi6UtR-1">
          <mxGeometry x="1030" y="440" width="160" height="160" as="geometry" />
        </mxCell>
        <mxCell id="0tiqqK7Gh2DmQwWfJ2oh-15" value="Hosting&lt;br&gt;Bucket" style="text;html=1;strokeColor=none;fillColor=none;align=center;verticalAlign=middle;whiteSpace=wrap;rounded=0;" vertex="1" parent="3e7g7bbxCxHq83Mi6UtR-1">
          <mxGeometry x="150" y="120" width="40" height="20" as="geometry" />
        </mxCell>
        <mxCell id="0tiqqK7Gh2DmQwWfJ2oh-16" value="Image&lt;br&gt;Bucket" style="text;html=1;strokeColor=none;fillColor=none;align=center;verticalAlign=middle;whiteSpace=wrap;rounded=0;" vertex="1" parent="3e7g7bbxCxHq83Mi6UtR-1">
          <mxGeometry x="300" y="120" width="40" height="20" as="geometry" />
        </mxCell>
        <mxCell id="0tiqqK7Gh2DmQwWfJ2oh-17" value="AWS Amplify" style="text;html=1;strokeColor=none;fillColor=none;align=center;verticalAlign=middle;whiteSpace=wrap;rounded=0;" vertex="1" parent="3e7g7bbxCxHq83Mi6UtR-1">
          <mxGeometry x="358" y="378" width="80" height="20" as="geometry" />
        </mxCell>
        <mxCell id="0tiqqK7Gh2DmQwWfJ2oh-18" value="AWS AppSync" style="text;html=1;strokeColor=none;fillColor=none;align=center;verticalAlign=middle;whiteSpace=wrap;rounded=0;" vertex="1" parent="3e7g7bbxCxHq83Mi6UtR-1">
          <mxGeometry x="540" y="388" width="90" height="20" as="geometry" />
        </mxCell>
        <mxCell id="0tiqqK7Gh2DmQwWfJ2oh-19" value="Amazon Cognito" style="text;html=1;strokeColor=none;fillColor=none;align=center;verticalAlign=middle;whiteSpace=wrap;rounded=0;" vertex="1" parent="3e7g7bbxCxHq83Mi6UtR-1">
          <mxGeometry x="552" y="40" width="92" height="20" as="geometry" />
        </mxCell>
        <mxCell id="0tiqqK7Gh2DmQwWfJ2oh-20" value="Amazon DynamoDB" style="text;html=1;strokeColor=none;fillColor=none;align=center;verticalAlign=middle;whiteSpace=wrap;rounded=0;" vertex="1" parent="3e7g7bbxCxHq83Mi6UtR-1">
          <mxGeometry x="1040" y="620" width="140" height="20" as="geometry" />
        </mxCell>
        <mxCell id="0tiqqK7Gh2DmQwWfJ2oh-21" value="Make Deposit Lambda" style="text;html=1;strokeColor=none;fillColor=none;align=center;verticalAlign=middle;whiteSpace=wrap;rounded=0;" vertex="1" parent="3e7g7bbxCxHq83Mi6UtR-1">
          <mxGeometry x="840" y="290" width="70" height="40" as="geometry" />
        </mxCell>
        <mxCell id="0tiqqK7Gh2DmQwWfJ2oh-22" value="" style="endArrow=block;html=1;endFill=1;" edge="1" parent="3e7g7bbxCxHq83Mi6UtR-1" source="0tiqqK7Gh2DmQwWfJ2oh-6">
          <mxGeometry width="50" height="50" relative="1" as="geometry">
            <mxPoint x="510" y="370" as="sourcePoint" />
            <mxPoint x="530" y="339" as="targetPoint" />
            <Array as="points">
              <mxPoint x="520" y="339" />
            </Array>
          </mxGeometry>
        </mxCell>
        <mxCell id="0tiqqK7Gh2DmQwWfJ2oh-23" value="" style="endArrow=block;html=1;endFill=1;" edge="1" parent="3e7g7bbxCxHq83Mi6UtR-1">
          <mxGeometry width="50" height="50" relative="1" as="geometry">
            <mxPoint x="460" y="-0.7099999999999937" as="sourcePoint" />
            <mxPoint x="552" y="-0.9999999999999574" as="targetPoint" />
            <Array as="points">
              <mxPoint x="500" y="-0.7099999999999937" />
              <mxPoint x="510" y="-0.7099999999999937" />
              <mxPoint x="520" y="-0.7099999999999937" />
              <mxPoint x="542" y="-0.9999999999999858" />
            </Array>
          </mxGeometry>
        </mxCell>
        <mxCell id="0tiqqK7Gh2DmQwWfJ2oh-24" value="" style="endArrow=none;html=1;" edge="1" parent="3e7g7bbxCxHq83Mi6UtR-1" source="0tiqqK7Gh2DmQwWfJ2oh-6" target="0tiqqK7Gh2DmQwWfJ2oh-1">
          <mxGeometry width="50" height="50" relative="1" as="geometry">
            <mxPoint x="400" y="290" as="sourcePoint" />
            <mxPoint x="430" y="120" as="targetPoint" />
            <Array as="points">
              <mxPoint x="490" y="30" />
            </Array>
          </mxGeometry>
        </mxCell>
        <mxCell id="0tiqqK7Gh2DmQwWfJ2oh-25" value="" style="strokeWidth=2;html=1;shape=mxgraph.flowchart.annotation_2;align=left;labelPosition=right;pointerEvents=1;" vertex="1" parent="3e7g7bbxCxHq83Mi6UtR-1">
          <mxGeometry x="618" y="230" width="170" height="250" as="geometry" />
        </mxCell>
        <mxCell id="0tiqqK7Gh2DmQwWfJ2oh-26" value="" style="endArrow=classic;html=1;" edge="1" parent="3e7g7bbxCxHq83Mi6UtR-1" source="0tiqqK7Gh2DmQwWfJ2oh-11">
          <mxGeometry width="50" height="50" relative="1" as="geometry">
            <mxPoint x="790" y="100" as="sourcePoint" />
            <mxPoint x="840" y="50" as="targetPoint" />
          </mxGeometry>
        </mxCell>
        <mxCell id="0tiqqK7Gh2DmQwWfJ2oh-27" value="" style="endArrow=classic;html=1;" edge="1" parent="3e7g7bbxCxHq83Mi6UtR-1" target="0tiqqK7Gh2DmQwWfJ2oh-12">
          <mxGeometry width="50" height="50" relative="1" as="geometry">
            <mxPoint x="908" y="250" as="sourcePoint" />
            <mxPoint x="958" y="200" as="targetPoint" />
          </mxGeometry>
        </mxCell>
        <mxCell id="0tiqqK7Gh2DmQwWfJ2oh-28" value="" style="endArrow=classic;html=1;" edge="1" parent="3e7g7bbxCxHq83Mi6UtR-1" source="0tiqqK7Gh2DmQwWfJ2oh-31" target="0tiqqK7Gh2DmQwWfJ2oh-14">
          <mxGeometry width="50" height="50" relative="1" as="geometry">
            <mxPoint x="1024" y="328" as="sourcePoint" />
            <mxPoint x="1074" y="278" as="targetPoint" />
          </mxGeometry>
        </mxCell>
        <mxCell id="0tiqqK7Gh2DmQwWfJ2oh-29" value="" style="endArrow=classic;html=1;" edge="1" parent="3e7g7bbxCxHq83Mi6UtR-1" target="0tiqqK7Gh2DmQwWfJ2oh-14">
          <mxGeometry width="50" height="50" relative="1" as="geometry">
            <mxPoint x="900" y="520" as="sourcePoint" />
            <mxPoint x="950" y="470" as="targetPoint" />
          </mxGeometry>
        </mxCell>
        <mxCell id="0tiqqK7Gh2DmQwWfJ2oh-30" value="" style="endArrow=classic;html=1;" edge="1" parent="3e7g7bbxCxHq83Mi6UtR-1" target="0tiqqK7Gh2DmQwWfJ2oh-8">
          <mxGeometry width="50" height="50" relative="1" as="geometry">
            <mxPoint x="860" y="155" as="sourcePoint" />
            <mxPoint x="728" y="105" as="targetPoint" />
            <Array as="points">
              <mxPoint x="698" y="135" />
            </Array>
          </mxGeometry>
        </mxCell>
        <mxCell id="0tiqqK7Gh2DmQwWfJ2oh-31" value="Place Bet Lambda" style="text;html=1;strokeColor=none;fillColor=none;align=center;verticalAlign=middle;whiteSpace=wrap;rounded=0;" vertex="1" parent="3e7g7bbxCxHq83Mi6UtR-1">
          <mxGeometry x="1003.5" y="288" width="91" height="42" as="geometry" />
        </mxCell>
        <mxCell id="0tiqqK7Gh2DmQwWfJ2oh-32" value="" style="endArrow=classic;html=1;" edge="1" parent="3e7g7bbxCxHq83Mi6UtR-1" source="0tiqqK7Gh2DmQwWfJ2oh-12" target="0tiqqK7Gh2DmQwWfJ2oh-31">
          <mxGeometry width="50" height="50" relative="1" as="geometry">
            <mxPoint x="1057.4661921708189" y="278" as="sourcePoint" />
            <mxPoint x="1092.6334519572956" y="440" as="targetPoint" />
          </mxGeometry>
        </mxCell>
        <mxCell id="0tiqqK7Gh2DmQwWfJ2oh-33" value="Text" style="text;html=1;align=center;verticalAlign=middle;resizable=0;points=[];autosize=1;" vertex="1" parent="3e7g7bbxCxHq83Mi6UtR-1">
          <mxGeometry x="810" y="-40" width="40" height="20" as="geometry" />
        </mxCell>
      </root>
    </mxGraphModel>
  </diagram>
</mxfile>
